<svg xmlns="http://www.w3.org/2000/svg" width="1200" height="675" viewBox="0 0 1200 675" role="img" aria-labelledby="title desc">
  <title id="title">AI Flow Builder preview</title>
  <desc id="desc">A visual workflow editor preview with connected input, template, AI, and output nodes.</desc>
  <defs>
    <linearGradient id="bg" x1="0" x2="1" y1="0" y2="1">
      <stop offset="0%" stop-color="#f7f8fb"/>
      <stop offset="100%" stop-color="#e8f4ff"/>
    </linearGradient>
    <filter id="shadow" x="-20%" y="-20%" width="140%" height="140%">
      <feDropShadow dx="0" dy="18" stdDeviation="18" flood-color="#172033" flood-opacity="0.18"/>
    </filter>
  </defs>
  <rect width="1200" height="675" rx="36" fill="url(#bg)"/>
  <rect x="64" y="62" width="1072" height="551" rx="28" fill="#ffffff" stroke="#d9dee8" filter="url(#shadow)"/>
  <rect x="64" y="62" width="1072" height="72" rx="28" fill="#172033"/>
  <rect x="64" y="106" width="1072" height="28" fill="#172033"/>
  <text x="104" y="108" fill="#ffffff" font-family="Inter, Arial, sans-serif" font-size="28" font-weight="700">AI Flow Builder</text>
  <rect x="905" y="84" width="92" height="30" rx="15" fill="#0f766e"/>
  <text x="932" y="105" fill="#ffffff" font-family="Inter, Arial, sans-serif" font-size="14" font-weight="700">Run</text>
  <rect x="1015" y="84" width="84" height="30" rx="15" fill="#f7f8fb"/>
  <text x="1035" y="105" fill="#172033" font-family="Inter, Arial, sans-serif" font-size="14" font-weight="700">Code</text>
  <rect x="90" y="160" width="178" height="398" rx="18" fill="#f7f8fb" stroke="#d9dee8"/>
  <text x="116" y="200" fill="#172033" font-family="Inter, Arial, sans-serif" font-size="20" font-weight="700">Node Palette</text>
  <rect x="116" y="232" width="126" height="42" rx="10" fill="#ecfdf5" stroke="#0f766e"/>
  <text x="139" y="259" fill="#134e4a" font-family="Inter, Arial, sans-serif" font-size="15" font-weight="700">Input</text>
  <rect x="116" y="294" width="126" height="42" rx="10" fill="#fffbeb" stroke="#d97706"/>
  <text x="139" y="321" fill="#78350f" font-family="Inter, Arial, sans-serif" font-size="15" font-weight="700">Template</text>
  <rect x="116" y="356" width="126" height="42" rx="10" fill="#f5f3ff" stroke="#8b5cf6"/>
  <text x="139" y="383" fill="#4c1d95" font-family="Inter, Arial, sans-serif" font-size="15" font-weight="700">AI</text>
  <rect x="116" y="418" width="126" height="42" rx="10" fill="#fff1f2" stroke="#e11d48"/>
  <text x="139" y="445" fill="#881337" font-family="Inter, Arial, sans-serif" font-size="15" font-weight="700">Output</text>
  <rect x="302" y="160" width="604" height="398" rx="18" fill="#ffffff" stroke="#d9dee8"/>
  <g stroke="#d9dee8" stroke-width="1">
    <path d="M302 226H906M302 292H906M302 358H906M302 424H906M302 490H906"/>
    <path d="M368 160V558M434 160V558M500 160V558M566 160V558M632 160V558M698 160V558M764 160V558M830 160V558"/>
  </g>
  <g fill="none" stroke="#0f766e" stroke-width="7" stroke-linecap="round">
    <path d="M454 282 C510 282 522 282 578 282"/>
    <path d="M700 282 C746 282 758 282 804 282"/>
    <path d="M576 404 C650 404 692 404 804 346"/>
  </g>
  <g filter="url(#shadow)">
    <rect x="350" y="232" width="126" height="100" rx="14" fill="#ffffff" stroke="#0f766e" stroke-width="3"/>
    <text x="374" y="273" fill="#172033" font-family="Inter, Arial, sans-serif" font-size="16" font-weight="700">Text Input</text>
    <text x="374" y="302" fill="#5f6b7a" font-family="Inter, Arial, sans-serif" font-size="13">runtime text</text>
    <circle cx="476" cy="282" r="7" fill="#172033"/>
    <rect x="578" y="232" width="146" height="100" rx="14" fill="#ffffff" stroke="#d97706" stroke-width="3"/>
    <text x="604" y="273" fill="#172033" font-family="Inter, Arial, sans-serif" font-size="16" font-weight="700">Template</text>
    <text x="604" y="302" fill="#5f6b7a" font-family="Inter, Arial, sans-serif" font-size="13">{{input}}</text>
    <circle cx="578" cy="282" r="7" fill="#172033"/>
    <circle cx="724" cy="282" r="7" fill="#172033"/>
    <rect x="804" y="232" width="146" height="100" rx="14" fill="#ffffff" stroke="#8b5cf6" stroke-width="3"/>
    <text x="830" y="273" fill="#172033" font-family="Inter, Arial, sans-serif" font-size="16" font-weight="700">AI Generate</text>
    <text x="830" y="302" fill="#5f6b7a" font-family="Inter, Arial, sans-serif" font-size="13">provider DI</text>
    <circle cx="804" cy="282" r="7" fill="#172033"/>
    <circle cx="950" cy="282" r="7" fill="#172033"/>
    <rect x="804" y="346" width="146" height="100" rx="14" fill="#ffffff" stroke="#e11d48" stroke-width="3"/>
    <text x="830" y="387" fill="#172033" font-family="Inter, Arial, sans-serif" font-size="16" font-weight="700">Text Output</text>
    <text x="830" y="416" fill="#5f6b7a" font-family="Inter, Arial, sans-serif" font-size="13">result</text>
    <circle cx="804" cy="396" r="7" fill="#172033"/>
  </g>
  <rect x="934" y="160" width="174" height="398" rx="18" fill="#f7f8fb" stroke="#d9dee8"/>
  <text x="960" y="200" fill="#172033" font-family="Inter, Arial, sans-serif" font-size="20" font-weight="700">Inspector</text>
  <rect x="960" y="232" width="122" height="18" rx="9" fill="#d9dee8"/>
  <rect x="960" y="268" width="104" height="18" rx="9" fill="#d9dee8"/>
  <rect x="960" y="304" width="130" height="82" rx="12" fill="#ffffff" stroke="#d9dee8"/>
  <text x="984" y="352" fill="#5f6b7a" font-family="Inter, Arial, sans-serif" font-size="15">config</text>
  <rect x="90" y="580" width="1018" height="2" fill="#d9dee8"/>
  <text x="94" y="622" fill="#172033" font-family="Inter, Arial, sans-serif" font-size="24" font-weight="700">Flow IR-first visual programming for AI workflows</text>
</svg>
